name 900006_30EmgEnv.mot
datacolumns 51
datarows 10
range 1.09259260 1.10092592
endheader

                time	   rect_fem_r_emgRec	   rect_fem_l_emgRec	   med_hams_r_emgRec	   med_hams_l_emgRec	   lat_hams_r_emgRec	   lat_hams_l_emgRec	    tib_ant_r_emgRec	    tib_ant_l_emgRec	    gas_sol_r_emgRec	    gas_sol_l_emgRec	   rect_fem_r_emgEnv	   rect_fem_l_emgEnv	   med_hams_r_emgEnv	   med_hams_l_emgEnv	   lat_hams_r_emgEnv	   lat_hams_l_emgEnv	    tib_ant_r_emgEnv	    tib_ant_l_emgEnv	    gas_sol_r_emgEnv	    gas_sol_l_emgEnv	   rect_fem_r_emgAve	   rect_fem_l_emgAve	   med_hams_r_emgAve	   med_hams_l_emgAve	   lat_hams_r_emgAve	   lat_hams_l_emgAve	    tib_ant_r_emgAve	    tib_ant_l_emgAve	    gas_sol_r_emgAve	    gas_sol_l_emgAve	   rect_fem_r_emgSDp	   rect_fem_l_emgSDp	   med_hams_r_emgSDp	   med_hams_l_emgSDp	   lat_hams_r_emgSDp	   lat_hams_l_emgSDp	    tib_ant_r_emgSDp	    tib_ant_l_emgSDp	    gas_sol_r_emgSDp	    gas_sol_l_emgSDp	   rect_fem_r_emgSDm	   rect_fem_l_emgSDm	   med_hams_r_emgSDm	   med_hams_l_emgSDm	   lat_hams_r_emgSDm	   lat_hams_l_emgSDm	    tib_ant_r_emgSDm	    tib_ant_l_emgSDm	    gas_sol_r_emgSDm	    gas_sol_l_emgSDm	
          1.09259260	          0.03140844	          0.03142835	          0.01673254	          0.00011702	          0.10650214	          0.00874461	          0.00168918	          0.19503748	          0.23951470	          0.01716388	          0.21374007	          0.12968965	          0.05030732	          0.01540935	          0.32317012	          0.01352867	          0.10946060	          0.75285162	          0.34038219	          0.09971589	          0.32072318	          0.09632054	          0.09891254	          0.05579316	          0.07963949	          0.04231999	          0.22639543	          0.47430912	          0.15247610	          0.21046276	          0.49061675	          0.17275348	          0.17655240	          0.13099216	          0.18305275	          0.09574140	          0.36669391	          0.77221099	          0.25587519	          0.44199492	          0.15082960	          0.01988760	          0.02127267	         -0.01940584	         -0.02377376	         -0.01110142	          0.08609694	          0.17640725	          0.04907701	         -0.02106939	
          1.09351850	          0.01827445	          0.00563683	          0.01680010	          0.00471586	          0.11170340	          0.00437996	          0.05646306	          0.08779596	          0.00775988	          0.00374528	          0.21304343	          0.12776840	          0.05340726	          0.01507469	          0.32094111	          0.01285073	          0.10660474	          0.74315781	          0.34122951	          0.09826353	          0.31770894	          0.09491225	          0.09774192	          0.05521077	          0.07853027	          0.04195992	          0.22276914	          0.47324839	          0.15296030	          0.21136564	          0.48676065	          0.17027114	          0.17459339	          0.13005139	          0.18175932	          0.09476922	          0.36299200	          0.77022296	          0.25666497	          0.44354248	          0.14865723	          0.01955335	          0.02089046	         -0.01962984	         -0.02469879	         -0.01084937	          0.08254628	          0.17627382	          0.04925563	         -0.02081120	
          1.09444451	          0.01242287	          0.01786520	          0.01330674	          0.00880924	          0.10993051	          0.00007756	          0.08794359	          0.02955665	          0.12882373	          0.00082771	          0.21236992	          0.12583736	          0.05661031	          0.01475562	          0.31856972	          0.01219015	          0.10377459	          0.73336706	          0.34206483	          0.09679102	          0.31470069	          0.09350725	          0.09660190	          0.05463402	          0.07744142	          0.04159858	          0.21918167	          0.47211128	          0.15348165	          0.21222478	          0.48290715	          0.16778091	          0.17268175	          0.12910980	          0.18049038	          0.09378387	          0.35932225	          0.76811907	          0.25748418	          0.44499028	          0.14649424	          0.01923358	          0.02052204	         -0.01984176	         -0.02560755	         -0.01058671	          0.07904109	          0.17610350	          0.04947912	         -0.02054071	
          1.09537041	          0.01226812	          0.01978249	          0.00981165	          0.00855959	          0.08884805	          0.00187095	          0.03058862	          0.09669222	          0.04820086	          0.00661329	          0.21171843	          0.12389876	          0.05990596	          0.01445223	          0.31606092	          0.01154717	          0.10097493	          0.72348893	          0.34289053	          0.09530082	          0.31169993	          0.09210616	          0.09549282	          0.05406330	          0.07637342	          0.04123618	          0.21563464	          0.47089839	          0.15404032	          0.21303983	          0.47905809	          0.16528396	          0.17081821	          0.12816807	          0.17924650	          0.09278596	          0.35568623	          0.76590040	          0.25833278	          0.44633785	          0.14434177	          0.01892836	          0.02016743	         -0.02004147	         -0.02649966	         -0.01031361	          0.07558306	          0.17589638	          0.04974786	         -0.02025819	
          1.09629631	          0.02437465	          0.03460887	          0.01100627	          0.00935797	          0.08479886	          0.00209487	          0.02311703	          0.18630649	          0.18230911	          0.00339072	          0.21108776	          0.12195471	          0.06328365	          0.01416464	          0.31341989	          0.01092199	          0.09821039	          0.71353279	          0.34370930	          0.09379538	          0.30870652	          0.09070901	          0.09441461	          0.05349873	          0.07532636	          0.04087278	          0.21212827	          0.46961021	          0.15463676	          0.21381064	          0.47521333	          0.16278049	          0.16900279	          0.12722646	          0.17802770	          0.09177573	          0.35208403	          0.76356778	          0.25921123	          0.44758502	          0.14219971	          0.01863753	          0.01982642	         -0.02022900	         -0.02737498	         -0.01003018	          0.07217251	          0.17565265	          0.05006228	         -0.01996374	
          1.09722221	          0.00412516	          0.04417915	          0.00478321	          0.00354085	          0.11269820	          0.00173021	          0.00449058	          0.01288797	          0.15389461	          0.02211449	          0.21047660	          0.12000722	          0.06673285	          0.01389294	          0.31065205	          0.01031473	          0.09548537	          0.70350776	          0.34452412	          0.09227724	          0.30572119	          0.08931603	          0.09336726	          0.05294052	          0.07430042	          0.04050849	          0.20866320	          0.46824706	          0.15527129	          0.21453704	          0.47137372	          0.16027106	          0.16723564	          0.12628531	          0.17683421	          0.09075355	          0.34851621	          0.76112172	          0.26011981	          0.44873162	          0.14006867	          0.01836101	          0.01949889	         -0.02040428	         -0.02823338	         -0.00973657	          0.06881018	          0.17537239	          0.05042277	         -0.01965754	
          1.09814823	          0.01962157	          0.04502484	          0.00841150	          0.00212457	          0.10246871	          0.00141596	          0.02374616	          0.20559197	          0.42746726	          0.03834604	          0.20988356	          0.11805817	          0.07024304	          0.01363725	          0.30776299	          0.00972548	          0.09280408	          0.69342277	          0.34533821	          0.09074894	          0.30274400	          0.08792722	          0.09235074	          0.05238881	          0.07329570	          0.04014340	          0.20523965	          0.46680945	          0.15594430	          0.21521902	          0.46753933	          0.15775581	          0.16551682	          0.12534494	          0.17566610	          0.08971968	          0.34498289	          0.75856307	          0.26105888	          0.44977781	          0.13794868	          0.01809864	          0.01918466	         -0.02056731	         -0.02907471	         -0.00943287	          0.06549641	          0.17505583	          0.05082972	         -0.01933977	
          1.09907413	          0.01381904	          0.05807838	          0.01760638	          0.00139946	          0.08513251	          0.00042573	          0.00143671	          0.34770090	          0.12767313	          0.04725325	          0.20930711	          0.11610935	          0.07380373	          0.01339769	          0.30475847	          0.00915428	          0.09017052	          0.68328650	          0.34615508	          0.08921310	          0.29977626	          0.08654321	          0.09136532	          0.05184397	          0.07231266	          0.03977774	          0.20185913	          0.46529835	          0.15665598	          0.21585625	          0.46371177	          0.15523602	          0.16384690	          0.12440598	          0.17452388	          0.08867479	          0.34148552	          0.75589341	          0.26202851	          0.45072314	          0.13584074	          0.01785040	          0.01888373	         -0.02071803	         -0.02989856	         -0.00911931	          0.06223275	          0.17470330	          0.05128346	         -0.01901063	
          1.10000002	          0.03614341	          0.06902721	          0.01965266	          0.00401600	          0.07767499	          0.00120225	          0.00368761	          0.28755644	          0.13056276	          0.03247900	          0.20874567	          0.11416245	          0.07740449	          0.01317437	          0.30164439	          0.00860112	          0.08758843	          0.67310747	          0.34697841	          0.08767233	          0.29681796	          0.08516402	          0.09041088	          0.05130615	          0.07135133	          0.03941162	          0.19852182	          0.46371412	          0.15740663	          0.21644880	          0.45989107	          0.15271193	          0.16222592	          0.12346873	          0.17340755	          0.08761921	          0.33802412	          0.75311336	          0.26302899	          0.45156783	          0.13374485	          0.01761611	          0.01859584	         -0.02085642	         -0.03070488	         -0.00879597	          0.05901952	          0.17431489	          0.05178427	         -0.01867023	
          1.10092592	          0.00612952	          0.05014100	          0.01184286	          0.00535645	          0.00931815	          0.00289237	          0.00371577	          0.07457463	          0.09192407	          0.01884072	          0.20819752	          0.11221905	          0.08103495	          0.01296745	          0.29842674	          0.00806596	          0.08506135	          0.66289401	          0.34781213	          0.08612932	          0.29386979	          0.08378987	          0.08948746	          0.05077558	          0.07041194	          0.03904516	          0.19522838	          0.46205756	          0.15819658	          0.21699652	          0.45607799	          0.15018409	          0.16065397	          0.12253360	          0.17231737	          0.08655336	          0.33459938	          0.75022417	          0.26406061	          0.45231187	          0.13166159	          0.01739565	          0.01832094	         -0.02098245	         -0.03149348	         -0.00846305	          0.05585739	          0.17389095	          0.05233256	         -0.01831883	
